<?xml version="1.0" standalone="no"?>
<!DOCTYPE svg PUBLIC "-//W3C//DTD SVG 20010904//EN"
 "http://www.w3.org/TR/2001/REC-SVG-20010904/DTD/svg10.dtd">
<svg version="1.0" xmlns="http://www.w3.org/2000/svg"
 width="512.000000pt" height="512.000000pt" viewBox="0 0 512.000000 512.000000"
 preserveAspectRatio="xMidYMid meet">

<g transform="translate(0.000000,512.000000) scale(0.100000,-0.100000)"
fill="#000000" stroke="none">
<path d="M2256 4210 c-689 -87 -1245 -569 -1417 -1228 -14 -57 -30 -107 -35
-111 -5 -5 -31 -14 -59 -20 -211 -52 -428 -201 -560 -385 -63 -88 -130 -235
-157 -342 -18 -72 -22 -117 -22 -234 0 -175 21 -274 89 -418 131 -277 345
-454 663 -550 53 -16 173 -17 1657 -20 1384 -2 1611 0 1686 13 446 77 811 389
954 817 122 366 69 749 -150 1078 -103 154 -295 320 -473 409 -130 65 -349
121 -474 121 -43 0 -49 3 -64 33 -9 17 -43 70 -74 117 -241 358 -614 606
-1044 696 -135 28 -395 40 -520 24z m484 -324 c398 -92 732 -350 917 -708 65
-127 73 -131 258 -140 176 -8 256 -27 390 -93 330 -163 531 -507 512 -875 -20
-372 -266 -700 -617 -822 -135 -47 -154 -48 -841 -48 l-649 0 0 477 0 477 178
-176 c158 -157 181 -176 219 -183 56 -9 125 21 153 67 24 39 26 107 6 146 -8
15 -154 166 -324 335 -256 256 -315 310 -345 317 -83 18 -87 15 -419 -317
-170 -169 -316 -320 -324 -335 -20 -39 -18 -107 6 -146 28 -46 97 -76 153 -67
38 7 61 26 220 183 l177 176 0 -477 0 -478 -782 3 -783 3 -73 27 c-110 40
-178 84 -268 174 -67 66 -90 97 -127 175 -101 206 -102 411 -2 614 102 211
302 352 541 384 128 17 163 51 183 184 31 196 110 398 222 563 65 96 209 247
304 318 185 139 414 234 640 265 119 17 355 5 475 -23z"/>
</g>
</svg>
